<svg id="svg" xmlns="http://www.w3.org/2000/svg" xmlns:xlink="http://www.w3.org/1999/xlink" width="400" height="400" viewBox="0, 0, 400,400"><g id="svgg"><path id="path0" d="M4.447 2.276 L 4.553 4.553 2.276 4.447 L 0.000 4.342 0.000 200.171 L 0.000 396.000 2.200 396.000 L 4.400 396.000 4.400 398.000 L 4.400 400.000 200.200 400.000 L 396.000 400.000 396.000 398.000 L 396.000 396.000 398.000 396.000 L 400.000 396.000 400.000 200.200 L 400.000 4.400 398.000 4.400 L 396.000 4.400 396.000 2.200 L 396.000 0.000 200.171 0.000 L 4.342 0.000 4.447 2.276 M257.230 113.952 C 258.773 114.311,260.800 115.836,260.800 116.639 C 260.800 116.911,261.012 117.204,261.272 117.291 C 261.702 117.434,262.263 126.737,262.370 135.500 C 262.405 138.431,263.133 138.873,263.896 136.428 C 264.511 134.458,265.889 132.943,267.416 132.560 C 268.063 132.398,268.832 132.025,269.125 131.733 C 269.418 131.440,270.140 131.200,270.730 131.200 C 271.905 131.200,273.698 129.582,274.169 128.097 C 274.326 127.604,274.601 127.200,274.780 127.200 C 274.960 127.200,275.204 126.827,275.324 126.370 C 275.443 125.914,275.914 125.443,276.370 125.324 C 276.827 125.204,277.200 124.955,277.200 124.769 C 277.200 124.584,277.920 124.216,278.800 123.953 C 279.680 123.689,280.400 123.329,280.400 123.153 C 280.400 122.976,281.165 122.606,282.100 122.329 C 283.954 121.779,284.176 121.637,286.241 119.667 C 287.846 118.137,287.700 118.081,291.073 121.498 C 292.213 122.652,293.272 124.003,293.427 124.499 C 293.581 124.994,293.909 125.528,294.154 125.685 C 295.009 126.232,294.761 181.696,293.900 182.557 C 293.515 182.942,293.197 183.469,293.193 183.729 C 293.178 184.753,291.281 185.944,288.926 186.407 C 286.945 186.797,286.387 187.084,285.945 187.943 C 285.646 188.524,285.293 189.090,285.161 189.200 C 285.028 189.310,284.727 189.767,284.491 190.216 C 284.255 190.665,283.553 191.295,282.931 191.616 C 282.309 191.937,281.573 192.414,281.295 192.676 C 281.018 192.938,279.983 193.274,278.995 193.422 C 278.008 193.570,277.200 193.825,277.200 193.989 C 277.200 194.153,275.447 194.486,273.305 194.730 C 271.162 194.973,269.347 195.359,269.271 195.586 C 269.195 195.814,268.802 196.000,268.396 196.000 C 267.991 196.000,266.750 196.900,265.638 198.000 C 264.527 199.100,263.343 200.000,263.009 200.000 C 262.674 200.000,262.375 200.045,262.345 200.100 C 262.315 200.155,262.180 210.715,262.045 223.567 C 261.855 241.728,261.689 246.971,261.300 247.100 C 261.025 247.192,260.800 247.802,260.800 248.456 C 260.800 250.059,259.986 253.200,259.571 253.200 C 259.388 253.200,258.927 253.853,258.548 254.652 C 257.769 256.296,256.606 257.559,255.175 258.317 C 254.281 258.791,252.770 262.333,252.793 263.900 C 252.797 264.175,252.640 264.400,252.443 264.400 C 252.247 264.400,251.965 264.886,251.816 265.480 C 251.373 267.244,248.726 269.200,246.781 269.200 C 246.352 269.200,246.000 269.451,246.000 269.757 C 246.000 270.064,245.733 270.417,245.407 270.542 C 245.081 270.667,244.698 271.496,244.556 272.385 C 244.414 273.273,244.141 274.000,243.949 274.000 C 243.757 274.000,243.600 274.220,243.600 274.490 C 243.600 275.579,240.791 277.498,238.813 277.761 C 237.739 277.903,236.802 278.195,236.730 278.410 C 236.658 278.625,234.985 278.936,233.012 279.100 L 229.424 279.400 229.070 281.200 C 228.875 282.190,228.599 283.090,228.457 283.200 C 228.315 283.310,227.952 283.879,227.651 284.464 C 226.807 286.104,224.767 286.454,214.700 286.685 C 209.695 286.800,205.600 287.053,205.600 287.247 C 205.600 287.441,203.260 287.600,200.400 287.600 C 197.540 287.600,195.200 287.438,195.200 287.241 C 195.200 287.044,190.835 286.798,185.500 286.694 C 174.733 286.486,173.348 286.238,171.392 284.165 C 170.685 283.414,169.967 282.800,169.799 282.800 C 169.411 282.800,167.742 281.012,167.221 280.040 C 167.005 279.636,166.272 279.194,165.591 279.058 C 164.910 278.922,164.081 278.538,163.748 278.205 C 163.415 277.872,162.629 277.600,162.000 277.600 C 161.371 277.600,160.587 277.330,160.257 277.000 C 159.927 276.670,159.509 276.394,159.329 276.387 C 158.391 276.349,157.124 274.646,156.697 272.848 C 156.384 271.529,155.979 270.783,155.511 270.661 C 155.120 270.559,154.800 270.231,154.800 269.932 C 154.800 269.613,153.998 269.199,152.850 268.926 C 150.404 268.345,148.926 266.899,148.298 264.473 C 148.031 263.443,147.655 262.487,147.462 262.349 C 147.009 262.025,146.440 259.073,146.417 256.933 C 146.393 254.596,146.077 254.001,144.857 253.995 C 143.219 253.988,139.508 252.898,139.150 252.319 C 138.770 251.705,133.481 251.788,133.267 252.412 C 133.193 252.625,132.023 252.804,130.667 252.810 C 126.612 252.826,124.923 253.400,122.943 255.437 C 121.747 256.667,120.959 257.178,120.487 257.027 C 120.104 256.906,119.186 256.736,118.448 256.650 C 117.709 256.564,116.992 256.322,116.853 256.112 C 116.714 255.902,115.610 255.566,114.400 255.365 C 112.129 254.988,111.288 253.930,113.059 253.678 C 114.284 253.503,117.198 250.512,117.470 249.150 C 117.597 248.517,117.858 248.000,118.050 248.000 C 118.243 248.000,118.400 247.531,118.400 246.958 C 118.400 245.464,123.741 240.210,125.964 239.516 C 126.864 239.235,127.600 238.869,127.600 238.703 C 127.600 238.536,128.005 238.397,128.500 238.394 C 129.759 238.385,130.124 238.030,130.758 236.200 C 131.439 234.234,132.657 232.952,134.213 232.561 C 134.862 232.398,135.632 232.025,135.925 231.733 C 136.218 231.440,136.782 231.200,137.179 231.200 C 138.349 231.200,138.400 230.035,138.400 203.350 C 138.400 189.193,138.554 178.000,138.749 178.000 C 138.941 178.000,139.218 177.249,139.365 176.331 C 139.738 173.998,141.044 172.922,144.212 172.339 C 145.636 172.076,146.800 171.734,146.800 171.578 C 146.800 171.421,147.160 171.199,147.600 171.084 C 148.053 170.966,148.400 170.538,148.400 170.099 C 148.400 169.672,148.760 168.907,149.200 168.400 C 149.640 167.893,150.000 167.325,150.000 167.139 C 150.000 166.952,150.251 166.800,150.557 166.800 C 150.864 166.800,151.212 166.547,151.330 166.238 C 151.449 165.928,152.098 165.554,152.773 165.406 C 153.448 165.258,154.000 164.991,154.000 164.813 C 154.000 164.397,155.794 164.067,160.318 163.649 C 164.160 163.295,164.880 162.930,165.337 161.110 C 165.582 160.132,166.336 159.226,168.209 157.658 C 169.570 156.518,175.928 156.494,176.333 157.627 C 176.407 157.832,176.677 158.001,176.933 158.002 C 178.974 158.012,182.800 160.325,182.800 161.548 C 182.800 161.811,183.048 162.120,183.350 162.236 C 183.653 162.352,184.133 163.562,184.418 164.924 C 184.702 166.286,185.128 167.528,185.365 167.684 C 185.648 167.870,185.834 171.494,185.909 178.284 C 186.016 187.845,186.414 192.000,187.223 192.000 C 187.398 192.000,187.625 192.315,187.728 192.700 C 187.889 193.303,187.954 193.280,188.196 192.533 C 188.350 192.056,188.999 191.449,189.638 191.184 C 190.277 190.920,190.800 190.552,190.800 190.368 C 190.800 190.183,191.565 189.809,192.500 189.536 C 193.435 189.262,194.290 188.913,194.400 188.760 C 194.510 188.606,195.039 188.418,195.576 188.340 C 196.292 188.237,196.642 187.853,196.888 186.900 C 197.072 186.185,197.398 185.600,197.611 185.600 C 197.825 185.600,198.000 185.364,198.000 185.075 C 198.000 184.206,199.585 182.783,200.831 182.534 C 201.474 182.405,202.000 182.164,202.000 181.997 C 202.000 181.831,202.788 181.497,203.751 181.254 C 205.784 180.742,207.836 178.992,208.226 177.438 C 208.376 176.842,208.971 176.054,209.549 175.686 C 210.127 175.319,210.692 174.894,210.804 174.741 C 210.916 174.588,211.474 174.346,212.044 174.203 L 213.080 173.943 213.334 155.672 C 213.586 137.486,213.833 134.110,214.992 132.951 C 215.326 132.617,215.600 132.212,215.600 132.052 C 215.600 131.619,217.918 130.900,220.300 130.594 C 221.455 130.446,222.400 130.173,222.400 129.987 C 222.400 129.801,223.071 129.592,223.891 129.524 C 224.895 129.441,225.515 129.139,225.791 128.600 C 226.381 127.447,227.711 126.000,228.180 126.000 C 228.401 126.000,229.234 125.287,230.031 124.416 C 231.549 122.755,233.500 122.029,236.500 122.010 C 237.325 122.004,238.000 121.833,238.000 121.628 C 238.000 121.423,238.405 121.198,238.900 121.128 C 239.478 121.046,239.846 120.678,239.928 120.100 C 239.998 119.605,240.201 119.200,240.379 119.200 C 240.557 119.200,240.927 118.660,241.200 118.000 C 241.473 117.340,241.926 116.800,242.206 116.800 C 242.486 116.800,242.812 116.547,242.930 116.238 C 243.049 115.928,243.743 115.546,244.473 115.387 C 245.203 115.229,245.899 114.945,246.019 114.757 C 246.523 113.970,254.764 113.378,257.230 113.952 M211.300 219.482 C 210.805 219.578,210.400 219.803,210.400 219.983 C 210.400 220.164,209.727 220.437,208.905 220.591 C 207.899 220.780,206.939 221.383,205.967 222.436 C 205.173 223.296,204.324 224.000,204.081 224.000 C 203.838 224.000,203.496 224.236,203.320 224.523 C 202.911 225.192,201.094 225.876,198.800 226.225 C 197.810 226.375,196.896 226.661,196.769 226.861 C 196.642 227.061,194.527 227.438,192.069 227.699 C 188.947 228.031,187.600 228.328,187.600 228.687 C 187.600 228.969,187.420 229.200,187.200 229.200 C 186.465 229.200,186.690 237.872,187.433 238.157 C 187.781 238.291,191.726 238.400,196.200 238.400 C 205.182 238.400,205.600 238.336,205.600 236.957 C 205.600 236.431,205.757 236.000,205.950 236.000 C 206.143 236.000,206.414 235.430,206.553 234.733 C 206.925 232.875,208.936 231.263,211.266 230.953 L 213.200 230.697 213.200 224.948 C 213.200 220.587,213.079 219.213,212.700 219.254 C 212.425 219.284,211.795 219.387,211.300 219.482 " stroke="none" fill="#4c44f4" fill-rule="evenodd"></path><path id="path1" d="M285.600 124.116 C 285.050 124.370,284.510 124.678,284.400 124.800 C 284.290 124.922,283.435 125.359,282.500 125.772 C 281.565 126.184,280.800 126.674,280.800 126.861 C 280.800 127.047,280.575 127.202,280.300 127.204 C 280.025 127.206,278.708 128.331,277.372 129.704 C 276.037 131.077,274.417 132.470,273.772 132.799 C 273.128 133.129,272.464 133.610,272.298 133.868 C 272.131 134.126,271.456 134.456,270.798 134.601 C 270.139 134.745,269.600 135.025,269.600 135.222 C 269.600 135.418,269.060 135.859,268.400 136.200 C 267.740 136.541,267.197 137.041,267.193 137.310 C 267.185 137.865,265.473 139.600,264.933 139.600 C 264.737 139.600,264.255 139.976,263.862 140.437 C 262.831 141.640,261.575 141.282,259.171 139.100 C 258.410 138.409,258.400 138.799,258.427 168.700 C 258.448 192.011,258.561 198.769,258.918 198.000 C 259.605 196.519,261.578 194.784,262.867 194.527 C 263.490 194.402,264.000 194.158,264.000 193.985 C 264.000 193.812,265.620 193.449,267.600 193.178 C 269.580 192.908,271.200 192.561,271.200 192.407 C 271.200 192.253,272.190 191.906,273.400 191.635 C 274.610 191.364,275.834 190.909,276.119 190.624 C 276.404 190.339,277.079 189.967,277.619 189.797 C 278.158 189.628,278.995 189.109,279.478 188.644 C 281.469 186.728,281.878 186.462,283.600 185.962 C 284.590 185.674,285.490 185.321,285.600 185.177 C 285.710 185.034,286.484 184.693,287.319 184.421 C 288.833 183.927,290.164 182.844,291.367 181.126 C 292.203 179.932,292.340 129.217,291.512 127.319 C 290.261 124.451,287.782 123.108,285.600 124.116 M215.600 175.800 C 215.298 176.570,214.897 177.200,214.710 177.200 C 214.522 177.200,213.636 177.926,212.740 178.813 C 211.844 179.700,210.591 180.694,209.955 181.023 C 209.320 181.352,208.800 181.778,208.800 181.971 C 208.800 182.164,208.260 182.510,207.600 182.740 C 206.940 182.970,206.400 183.319,206.400 183.516 C 206.400 183.712,205.680 184.089,204.800 184.353 C 203.920 184.616,203.200 184.996,203.200 185.197 C 203.200 185.398,202.614 185.840,201.898 186.180 C 201.182 186.520,200.362 187.328,200.075 187.976 C 199.788 188.624,199.024 189.388,198.377 189.674 C 197.730 189.961,197.200 190.341,197.200 190.518 C 197.200 190.696,196.570 191.104,195.800 191.426 C 195.030 191.748,194.400 192.188,194.400 192.405 C 194.400 192.622,194.164 192.800,193.875 192.800 C 193.342 192.800,192.480 193.520,190.950 195.243 C 188.818 197.642,187.764 198.302,185.589 198.599 C 184.385 198.763,183.310 199.020,183.200 199.170 C 182.456 200.185,179.173 200.264,178.199 199.290 L 177.200 198.291 177.200 213.486 C 177.200 228.712,177.373 230.874,178.628 231.355 C 178.943 231.476,179.200 231.842,179.200 232.168 C 179.200 232.494,179.441 232.904,179.735 233.080 C 180.030 233.256,180.475 233.760,180.723 234.200 C 181.094 234.855,181.179 234.494,181.195 232.200 C 181.214 229.412,182.133 227.600,183.528 227.600 C 183.756 227.600,184.215 227.328,184.547 226.996 C 184.879 226.664,186.556 226.103,188.275 225.749 C 189.994 225.395,191.490 224.983,191.600 224.833 C 191.710 224.684,192.565 224.338,193.500 224.064 C 194.435 223.791,195.200 223.424,195.200 223.248 C 195.200 223.072,195.911 222.694,196.779 222.407 C 197.648 222.120,198.445 221.658,198.552 221.381 C 198.659 221.103,199.298 220.754,199.973 220.606 C 200.648 220.458,201.200 220.215,201.200 220.066 C 201.200 219.753,203.516 218.993,205.700 218.589 C 206.525 218.436,207.200 218.176,207.200 218.010 C 207.200 217.845,208.280 217.480,209.600 217.200 C 210.920 216.920,212.000 216.535,212.000 216.345 C 212.000 215.360,213.530 216.063,215.384 217.900 C 215.883 218.395,216.406 218.800,216.546 218.800 C 216.686 218.800,216.800 208.810,216.800 196.600 C 216.800 174.771,216.698 173.002,215.600 175.800 M141.793 231.623 C 141.649 232.076,141.097 232.611,140.566 232.813 C 140.035 233.015,139.600 233.336,139.600 233.526 C 139.600 233.716,138.880 234.110,138.000 234.400 C 137.120 234.690,136.400 235.084,136.400 235.274 C 136.400 235.464,135.933 235.798,135.361 236.015 C 134.790 236.232,134.229 236.767,134.115 237.205 C 134.000 237.642,133.784 238.000,133.634 238.000 C 133.484 238.000,133.143 238.603,132.876 239.341 C 132.474 240.453,132.051 240.791,130.394 241.326 C 129.296 241.681,128.115 242.203,127.770 242.486 C 126.848 243.242,124.000 246.074,124.000 246.234 C 124.000 246.659,126.465 248.800,126.953 248.800 C 127.272 248.800,127.601 249.004,127.685 249.254 C 127.857 249.770,132.012 249.801,132.373 249.289 C 132.498 249.111,133.410 248.712,134.400 248.400 C 135.390 248.088,136.301 247.691,136.423 247.517 C 136.546 247.343,138.121 246.905,139.923 246.543 C 141.726 246.182,143.200 245.732,143.200 245.543 C 143.200 245.354,143.830 245.200,144.600 245.200 C 145.733 245.200,146.000 245.048,146.000 244.400 C 146.000 243.960,145.853 243.600,145.672 243.600 C 145.492 243.600,145.100 242.700,144.800 241.600 C 144.500 240.500,144.144 239.600,144.008 239.600 C 143.737 239.600,142.800 233.612,142.800 231.879 C 142.800 230.607,142.166 230.446,141.793 231.623 " stroke="none" fill="#41cefc" fill-rule="evenodd"></path><path id="path2" d="M253.600 119.951 C 253.600 120.145,253.060 120.527,252.400 120.800 C 251.740 121.073,251.200 121.444,251.200 121.623 C 251.200 121.802,250.570 122.176,249.800 122.454 C 249.030 122.733,248.400 123.080,248.400 123.226 C 248.400 123.371,247.320 123.720,246.000 124.000 C 244.680 124.280,243.600 124.630,243.600 124.778 C 243.600 124.925,242.295 125.384,240.700 125.797 C 239.105 126.210,237.581 126.739,237.313 126.974 C 237.044 127.208,236.279 127.842,235.613 128.381 C 234.946 128.921,234.400 129.600,234.400 129.891 C 234.400 130.182,233.995 130.576,233.500 130.768 C 233.005 130.959,232.172 131.491,231.649 131.949 C 231.125 132.408,230.090 132.897,229.349 133.036 C 228.607 133.175,228.000 133.415,228.000 133.569 C 228.000 133.723,227.114 134.076,226.032 134.353 C 224.949 134.631,223.974 135.092,223.864 135.377 C 223.754 135.663,223.164 136.023,222.553 136.176 C 220.999 136.566,219.752 138.050,218.915 140.505 C 218.522 141.657,218.020 142.728,217.800 142.885 C 217.229 143.292,216.796 173.400,216.907 204.914 C 216.974 223.776,216.875 231.310,216.558 231.514 C 216.315 231.672,215.892 232.745,215.618 233.900 C 215.344 235.055,214.993 236.000,214.837 236.000 C 214.681 236.000,214.251 236.686,213.882 237.523 C 213.406 238.602,212.799 239.208,211.805 239.598 C 211.032 239.901,210.400 240.287,210.400 240.456 C 210.400 240.625,209.725 241.079,208.900 241.466 C 208.075 241.853,207.177 242.387,206.904 242.652 C 206.631 242.918,205.866 243.254,205.204 243.399 C 204.542 243.545,204.000 243.793,204.000 243.952 C 204.000 244.111,202.650 244.481,201.000 244.774 C 199.350 245.067,198.000 245.442,198.000 245.607 C 198.000 246.288,195.963 246.261,195.165 245.570 C 194.708 245.173,193.809 244.734,193.167 244.593 C 192.525 244.452,192.000 244.184,192.000 243.997 C 192.000 243.810,191.010 243.436,189.800 243.165 C 188.590 242.894,187.600 242.541,187.600 242.380 C 187.600 242.219,187.145 241.973,186.590 241.833 C 185.723 241.616,183.583 239.718,182.188 237.929 C 181.961 237.638,181.545 236.624,181.264 235.676 C 180.983 234.728,180.404 233.653,179.977 233.287 C 179.550 232.922,179.200 232.387,179.200 232.099 C 179.200 231.811,178.943 231.476,178.628 231.355 C 177.371 230.873,177.200 228.713,177.200 213.340 C 177.200 203.380,177.060 198.000,176.800 198.000 C 176.541 198.000,176.400 193.275,176.400 184.626 C 176.400 176.540,176.239 170.830,175.994 170.183 C 175.512 168.916,173.599 166.800,172.935 166.800 C 172.677 166.800,172.394 166.583,172.306 166.319 C 172.116 165.748,169.208 165.744,168.847 166.314 C 168.711 166.528,167.565 166.934,166.300 167.215 C 165.035 167.497,164.000 167.879,164.000 168.064 C 164.000 168.249,163.721 168.400,163.380 168.400 C 162.328 168.400,160.261 169.636,158.946 171.051 C 158.256 171.793,157.486 172.400,157.233 172.400 C 156.981 172.400,156.678 172.652,156.560 172.959 C 156.442 173.267,155.548 173.720,154.573 173.965 C 153.598 174.211,152.800 174.560,152.800 174.742 C 152.800 174.924,152.109 175.280,151.265 175.533 C 150.421 175.786,149.314 176.355,148.804 176.797 C 148.294 177.238,147.751 177.600,147.597 177.600 C 146.914 177.600,145.251 179.607,144.751 181.035 C 144.451 181.896,144.091 182.690,143.953 182.800 C 142.241 184.163,142.294 239.600,144.008 239.600 C 144.144 239.600,144.500 240.500,144.800 241.600 C 145.100 242.700,145.455 243.600,145.590 243.600 C 145.725 243.600,146.170 244.410,146.578 245.400 C 146.987 246.390,147.445 247.200,147.597 247.200 C 147.749 247.200,148.089 247.920,148.353 248.800 C 148.616 249.680,148.981 250.400,149.164 250.400 C 149.347 250.400,149.708 251.480,149.968 252.800 C 150.228 254.120,150.592 255.200,150.777 255.200 C 150.962 255.200,151.218 255.616,151.345 256.125 C 151.473 256.633,152.032 257.578,152.588 258.225 C 153.144 258.871,153.599 259.535,153.600 259.700 C 153.600 259.865,153.838 260.000,154.128 260.000 C 154.713 260.000,156.067 261.431,156.830 262.857 C 157.478 264.066,162.240 268.800,162.809 268.800 C 163.051 268.800,164.323 269.867,165.635 271.171 C 166.947 272.475,168.556 273.779,169.211 274.069 C 169.865 274.358,170.400 274.719,170.400 274.869 C 170.400 275.020,171.397 275.433,172.616 275.787 C 173.834 276.142,175.155 276.739,175.550 277.116 C 175.945 277.492,176.687 278.070,177.200 278.400 C 177.713 278.730,178.452 279.305,178.844 279.678 C 179.616 280.413,183.195 281.600,184.639 281.600 C 185.131 281.600,185.593 281.766,185.667 281.970 C 186.210 283.477,214.459 283.601,215.575 282.101 C 215.699 281.936,216.789 281.462,217.998 281.049 C 219.207 280.635,220.433 279.960,220.721 279.549 C 221.009 279.137,221.486 278.800,221.780 278.800 C 222.074 278.800,222.409 278.553,222.525 278.251 C 222.641 277.950,223.222 277.581,223.816 277.432 C 224.410 277.283,225.130 276.927,225.415 276.642 C 225.700 276.357,227.029 275.891,228.367 275.607 C 229.705 275.323,230.800 274.953,230.800 274.784 C 230.800 274.616,231.340 274.290,232.000 274.060 C 232.660 273.830,233.200 273.474,233.200 273.269 C 233.200 273.065,233.696 272.692,234.302 272.441 C 234.908 272.189,235.759 271.456,236.192 270.811 C 236.626 270.166,237.435 269.407,237.990 269.125 C 239.089 268.566,241.600 266.135,241.600 265.630 C 241.600 265.458,242.050 264.831,242.600 264.238 C 243.150 263.644,243.600 262.981,243.600 262.765 C 243.600 262.548,244.680 261.304,246.000 260.000 C 247.320 258.696,248.400 257.452,248.400 257.235 C 248.400 257.017,248.659 256.695,248.975 256.518 C 249.292 256.341,249.784 255.297,250.069 254.198 C 250.354 253.099,250.694 252.110,250.826 252.000 C 250.957 251.890,251.300 250.675,251.587 249.300 C 251.874 247.925,252.257 246.800,252.439 246.800 C 252.620 246.800,252.989 246.061,253.260 245.158 C 253.530 244.255,253.987 243.426,254.276 243.316 C 254.564 243.205,254.800 242.898,254.800 242.633 C 254.800 242.368,255.121 241.802,255.513 241.375 C 256.481 240.321,257.200 237.727,257.200 235.287 C 257.200 234.149,257.396 233.201,257.649 233.117 C 258.277 232.908,258.395 128.100,257.767 127.686 C 257.529 127.529,257.119 126.078,256.857 124.461 C 256.594 122.845,256.114 121.257,255.790 120.933 C 255.465 120.608,255.200 120.176,255.200 119.971 C 255.200 119.767,254.840 119.600,254.400 119.600 C 253.960 119.600,253.600 119.758,253.600 119.951 M248.842 129.195 L 249.884 129.200 250.096 136.248 C 250.212 140.124,250.480 143.409,250.692 143.548 C 250.903 143.686,251.291 145.960,251.554 148.600 C 251.817 151.240,252.205 153.460,252.416 153.533 C 252.918 153.708,252.938 188.283,252.436 188.467 C 252.235 188.540,251.846 190.760,251.570 193.400 C 251.294 196.040,250.873 198.328,250.634 198.485 C 250.339 198.679,250.136 203.978,250.000 215.000 C 249.859 226.466,249.667 231.314,249.346 231.515 C 249.097 231.672,248.666 233.465,248.390 235.500 C 248.113 237.535,247.759 239.200,247.603 239.200 C 247.448 239.200,247.103 241.573,246.838 244.473 C 246.344 249.889,246.234 250.400,245.561 250.400 C 245.090 250.400,241.600 253.932,241.600 254.410 C 241.600 254.595,241.276 254.849,240.880 254.975 C 240.076 255.230,239.200 257.291,239.200 258.928 C 239.200 259.518,239.030 260.000,238.823 260.000 C 238.616 260.000,238.391 260.762,238.323 261.693 L 238.200 263.386 235.461 263.833 C 233.954 264.079,232.604 264.456,232.461 264.669 C 232.317 264.883,231.895 265.171,231.522 265.308 C 231.145 265.447,230.726 266.189,230.578 266.979 C 230.431 267.761,230.151 268.400,229.955 268.400 C 229.760 268.400,229.600 269.030,229.600 269.800 L 229.600 271.200 226.800 271.200 C 225.260 271.200,224.000 271.350,224.000 271.534 C 224.000 271.717,222.065 272.079,219.700 272.337 C 217.335 272.595,215.340 272.985,215.267 273.203 C 215.193 273.421,214.889 273.600,214.589 273.600 C 214.290 273.600,213.810 273.931,213.523 274.337 C 213.235 274.742,212.552 275.311,212.004 275.602 C 210.758 276.263,209.039 277.975,208.689 278.900 C 208.271 280.008,193.200 279.970,193.200 278.861 C 193.200 277.201,189.964 274.232,187.688 273.805 C 186.871 273.652,186.111 273.384,186.001 273.209 C 185.890 273.034,184.002 272.697,181.804 272.459 C 179.607 272.221,177.747 271.841,177.671 271.613 C 177.595 271.386,177.081 271.200,176.529 271.200 C 175.862 271.200,175.455 270.932,175.316 270.400 C 175.201 269.960,174.978 269.600,174.820 269.600 C 174.662 269.600,174.008 269.065,173.367 268.411 C 172.725 267.757,171.971 267.217,171.690 267.211 C 171.410 267.205,171.009 266.750,170.800 266.200 C 170.591 265.650,170.160 265.200,169.843 265.200 C 169.526 265.200,169.196 264.987,169.109 264.726 C 169.020 264.461,167.465 264.062,165.575 263.819 L 162.200 263.386 161.881 260.805 C 161.706 259.385,161.435 258.129,161.281 258.012 C 161.126 257.895,160.748 257.314,160.442 256.719 C 159.792 255.457,158.182 254.800,155.740 254.800 L 154.000 254.800 153.996 252.500 C 153.990 248.837,152.833 239.468,152.351 239.169 C 152.109 239.020,151.732 237.211,151.514 235.149 C 151.296 233.087,150.957 231.340,150.759 231.267 C 150.290 231.092,150.282 187.600,150.751 187.600 C 150.945 187.600,151.340 187.015,151.629 186.300 C 151.918 185.585,152.299 184.900,152.475 184.778 C 152.652 184.655,152.914 183.395,153.059 181.978 C 153.369 178.939,153.504 178.814,156.500 178.806 C 157.765 178.803,158.800 178.620,158.800 178.400 C 158.800 178.180,159.295 177.999,159.900 177.998 C 161.214 177.995,164.118 177.232,164.400 176.815 C 164.510 176.653,165.127 176.347,165.771 176.136 C 166.416 175.925,167.136 175.403,167.371 174.976 C 167.607 174.549,167.918 174.110,168.063 173.999 C 168.207 173.889,168.486 173.180,168.682 172.423 C 169.040 171.041,170.551 170.152,171.522 170.752 C 171.803 170.925,171.967 180.497,172.026 200.205 C 172.109 228.221,172.384 237.487,173.147 237.974 C 173.341 238.099,173.627 238.786,173.782 239.501 C 174.155 241.220,176.091 243.106,177.816 243.429 C 178.577 243.572,179.200 243.858,179.200 244.065 C 179.200 244.272,179.740 244.630,180.400 244.860 C 181.060 245.090,181.600 245.441,181.600 245.639 C 181.600 245.838,181.953 246.000,182.384 246.000 C 182.816 246.000,183.401 246.277,183.684 246.615 C 185.277 248.514,186.732 250.000,187.001 250.000 C 187.170 250.000,187.717 250.405,188.216 250.900 C 189.945 252.613,190.380 252.803,193.284 253.110 C 196.953 253.499,206.126 253.022,206.323 252.432 C 206.402 252.194,206.748 252.000,207.093 252.000 C 208.231 252.000,210.363 249.375,210.642 247.630 C 210.800 246.642,211.118 246.000,211.451 246.000 C 211.753 246.000,212.000 245.851,212.000 245.669 C 212.000 245.487,213.175 245.122,214.611 244.857 C 217.802 244.269,219.049 243.283,219.422 241.051 C 219.574 240.143,219.901 239.272,220.149 239.115 C 220.476 238.908,220.569 233.781,220.486 220.515 C 220.423 210.442,220.490 189.307,220.634 173.550 L 220.897 144.900 222.859 144.668 C 223.939 144.540,225.096 144.161,225.431 143.826 C 225.766 143.492,226.310 143.066,226.641 142.881 C 226.976 142.694,227.452 141.444,227.713 140.072 C 227.996 138.585,228.386 137.600,228.692 137.600 C 228.971 137.600,229.200 137.420,229.200 137.200 C 229.200 136.977,230.281 136.800,231.643 136.800 C 234.269 136.800,239.600 135.684,239.600 135.135 C 239.600 134.951,239.876 134.800,240.213 134.800 C 241.212 134.800,243.141 132.522,243.425 131.006 C 243.705 129.514,245.251 128.656,247.000 129.022 C 247.440 129.114,248.269 129.192,248.842 129.195 " stroke="none" fill="#ececfc" fill-rule="evenodd"></path><path id="path3" d="M244.945 129.227 C 243.933 129.527,243.638 129.873,243.425 131.006 C 243.141 132.522,241.212 134.800,240.213 134.800 C 239.876 134.800,239.600 134.951,239.600 135.135 C 239.600 135.684,234.269 136.800,231.643 136.800 C 230.281 136.800,229.200 136.977,229.200 137.200 C 229.200 137.420,228.971 137.600,228.692 137.600 C 228.386 137.600,227.996 138.585,227.713 140.072 C 227.452 141.444,226.976 142.694,226.641 142.881 C 226.310 143.066,225.766 143.492,225.431 143.826 C 225.096 144.161,223.939 144.540,222.859 144.668 L 220.897 144.900 220.634 173.550 C 220.490 189.307,220.423 210.442,220.486 220.515 C 220.569 233.781,220.476 238.908,220.149 239.115 C 219.901 239.272,219.574 240.143,219.422 241.051 C 219.049 243.283,217.802 244.269,214.611 244.857 C 213.175 245.122,212.000 245.487,212.000 245.669 C 212.000 245.851,211.753 246.000,211.451 246.000 C 211.118 246.000,210.800 246.642,210.642 247.630 C 210.363 249.375,208.231 252.000,207.093 252.000 C 206.748 252.000,206.402 252.194,206.323 252.432 C 206.126 253.022,196.953 253.499,193.284 253.110 C 190.380 252.803,189.945 252.613,188.216 250.900 C 187.717 250.405,187.170 250.000,187.001 250.000 C 186.732 250.000,185.277 248.514,183.684 246.615 C 183.401 246.277,182.816 246.000,182.384 246.000 C 181.953 246.000,181.600 245.838,181.600 245.639 C 181.600 245.441,181.060 245.090,180.400 244.860 C 179.740 244.630,179.200 244.272,179.200 244.065 C 179.200 243.858,178.577 243.572,177.816 243.429 C 176.091 243.106,174.155 241.220,173.782 239.501 C 173.627 238.786,173.341 238.099,173.147 237.974 C 172.384 237.487,172.109 228.221,172.026 200.205 C 171.967 180.497,171.803 170.925,171.522 170.752 C 170.551 170.152,169.040 171.041,168.682 172.423 C 168.486 173.180,168.207 173.889,168.063 173.999 C 167.918 174.110,167.607 174.549,167.371 174.976 C 167.136 175.403,166.416 175.925,165.771 176.136 C 165.127 176.347,164.510 176.653,164.400 176.815 C 164.118 177.232,161.214 177.995,159.900 177.998 C 159.295 177.999,158.800 178.180,158.800 178.400 C 158.800 178.620,157.765 178.803,156.500 178.806 C 153.504 178.814,153.369 178.939,153.059 181.978 C 152.914 183.395,152.652 184.655,152.475 184.778 C 152.299 184.900,151.918 185.585,151.629 186.300 C 151.340 187.015,150.945 187.600,150.751 187.600 C 150.282 187.600,150.290 231.092,150.759 231.267 C 150.957 231.340,151.296 233.087,151.514 235.149 C 151.732 237.211,152.109 239.020,152.351 239.169 C 152.833 239.468,153.990 248.837,153.996 252.500 L 154.000 254.800 155.740 254.800 C 158.182 254.800,159.792 255.457,160.442 256.719 C 160.748 257.314,161.126 257.895,161.281 258.012 C 161.435 258.129,161.706 259.385,161.881 260.805 L 162.200 263.386 165.575 263.819 C 167.465 264.062,169.020 264.461,169.109 264.726 C 169.196 264.987,169.526 265.200,169.843 265.200 C 170.160 265.200,170.591 265.650,170.800 266.200 C 171.009 266.750,171.410 267.205,171.690 267.211 C 171.971 267.217,172.725 267.757,173.367 268.411 C 174.008 269.065,174.662 269.600,174.820 269.600 C 174.978 269.600,175.201 269.960,175.316 270.400 C 175.455 270.932,175.862 271.200,176.529 271.200 C 177.081 271.200,177.595 271.386,177.671 271.613 C 177.747 271.841,179.607 272.221,181.804 272.459 C 184.002 272.697,185.890 273.034,186.001 273.209 C 186.111 273.384,186.871 273.652,187.688 273.805 C 189.964 274.232,193.200 277.201,193.200 278.861 C 193.200 279.970,208.271 280.008,208.689 278.900 C 209.039 277.975,210.758 276.263,212.004 275.602 C 212.552 275.311,213.235 274.742,213.523 274.337 C 213.810 273.931,214.290 273.600,214.589 273.600 C 214.889 273.600,215.193 273.421,215.267 273.203 C 215.340 272.985,217.335 272.595,219.700 272.337 C 222.065 272.079,224.000 271.717,224.000 271.534 C 224.000 271.350,225.260 271.200,226.800 271.200 L 229.600 271.200 229.600 269.800 C 229.600 269.030,229.760 268.400,229.955 268.400 C 230.151 268.400,230.431 267.761,230.578 266.979 C 230.726 266.189,231.145 265.447,231.522 265.308 C 231.895 265.171,232.317 264.883,232.461 264.669 C 232.604 264.456,233.954 264.079,235.461 263.833 L 238.200 263.386 238.323 261.693 C 238.391 260.762,238.616 260.000,238.823 260.000 C 239.030 260.000,239.200 259.518,239.200 258.928 C 239.200 257.291,240.076 255.230,240.880 254.975 C 241.276 254.849,241.600 254.595,241.600 254.410 C 241.600 253.932,245.090 250.400,245.561 250.400 C 246.234 250.400,246.344 249.889,246.838 244.473 C 247.103 241.573,247.448 239.200,247.603 239.200 C 247.759 239.200,248.113 237.535,248.390 235.500 C 248.666 233.465,249.097 231.672,249.346 231.515 C 249.667 231.314,249.859 226.466,250.000 215.000 C 250.136 203.978,250.339 198.679,250.634 198.485 C 250.873 198.328,251.294 196.040,251.570 193.400 C 251.846 190.760,252.235 188.540,252.436 188.467 C 252.938 188.283,252.918 153.708,252.416 153.533 C 252.205 153.460,251.817 151.240,251.554 148.600 C 251.291 145.960,250.903 143.686,250.692 143.548 C 250.480 143.409,250.212 140.124,250.096 136.248 L 249.884 129.200 248.842 129.195 C 248.269 129.192,247.440 129.114,247.000 129.022 C 246.560 128.929,245.635 129.022,244.945 129.227 " stroke="none" fill="#fafcfc" fill-rule="evenodd"></path><path id="path4" d="M249.019 114.058 C 247.490 114.254,246.140 114.568,246.019 114.757 C 245.899 114.945,245.203 115.229,244.473 115.387 C 243.743 115.546,243.049 115.928,242.930 116.238 C 242.812 116.547,242.486 116.800,242.206 116.800 C 241.926 116.800,241.473 117.340,241.200 118.000 C 240.927 118.660,240.557 119.200,240.379 119.200 C 240.201 119.200,239.998 119.605,239.928 120.100 C 239.846 120.678,239.478 121.046,238.900 121.128 C 238.405 121.198,238.000 121.423,238.000 121.628 C 238.000 121.833,237.325 122.004,236.500 122.010 C 233.500 122.029,231.549 122.755,230.031 124.416 C 229.234 125.287,228.401 126.000,228.180 126.000 C 227.711 126.000,226.381 127.447,225.791 128.600 C 225.515 129.139,224.895 129.441,223.891 129.524 C 223.071 129.592,222.400 129.801,222.400 129.987 C 222.400 130.173,221.455 130.446,220.300 130.594 C 217.918 130.900,215.600 131.619,215.600 132.052 C 215.600 132.212,215.326 132.617,214.992 132.951 C 213.833 134.110,213.586 137.486,213.334 155.672 L 213.080 173.943 212.044 174.203 C 211.474 174.346,210.916 174.588,210.804 174.741 C 210.692 174.894,210.127 175.319,209.549 175.686 C 208.971 176.054,208.376 176.842,208.226 177.438 C 207.836 178.992,205.784 180.742,203.751 181.254 C 202.788 181.497,202.000 181.831,202.000 181.997 C 202.000 182.164,201.474 182.405,200.831 182.534 C 199.585 182.783,198.000 184.206,198.000 185.075 C 198.000 185.364,197.825 185.600,197.611 185.600 C 197.398 185.600,197.072 186.185,196.888 186.900 C 196.642 187.853,196.292 188.237,195.576 188.340 C 195.039 188.418,194.510 188.606,194.400 188.760 C 194.290 188.913,193.435 189.262,192.500 189.536 C 191.565 189.809,190.800 190.183,190.800 190.368 C 190.800 190.552,190.277 190.920,189.638 191.184 C 188.999 191.449,188.350 192.056,188.196 192.533 C 187.954 193.280,187.889 193.303,187.728 192.700 C 187.625 192.315,187.398 192.000,187.223 192.000 C 186.414 192.000,186.016 187.845,185.909 178.284 C 185.834 171.494,185.648 167.870,185.365 167.684 C 185.128 167.528,184.702 166.286,184.418 164.924 C 184.133 163.562,183.653 162.352,183.350 162.236 C 183.048 162.120,182.800 161.811,182.800 161.548 C 182.800 160.325,178.974 158.012,176.933 158.002 C 176.677 158.001,176.407 157.832,176.333 157.627 C 175.928 156.494,169.570 156.518,168.209 157.658 C 166.336 159.226,165.582 160.132,165.337 161.110 C 164.880 162.930,164.160 163.295,160.318 163.649 C 155.794 164.067,154.000 164.397,154.000 164.813 C 154.000 164.991,153.448 165.258,152.773 165.406 C 152.098 165.554,151.449 165.928,151.330 166.238 C 151.212 166.547,150.864 166.800,150.557 166.800 C 150.251 166.800,150.000 166.952,150.000 167.139 C 150.000 167.325,149.640 167.893,149.200 168.400 C 148.760 168.907,148.400 169.672,148.400 170.099 C 148.400 170.538,148.053 170.966,147.600 171.084 C 147.160 171.199,146.800 171.421,146.800 171.578 C 146.800 171.734,145.636 172.076,144.212 172.339 C 141.044 172.922,139.738 173.998,139.365 176.331 C 139.218 177.249,138.941 178.000,138.749 178.000 C 138.554 178.000,138.400 189.193,138.400 203.350 C 138.400 230.035,138.349 231.200,137.179 231.200 C 136.782 231.200,136.218 231.440,135.925 231.733 C 135.632 232.025,134.862 232.398,134.213 232.561 C 132.657 232.952,131.439 234.234,130.758 236.200 C 130.124 238.030,129.759 238.385,128.500 238.394 C 128.005 238.397,127.600 238.536,127.600 238.703 C 127.600 238.869,126.864 239.235,125.964 239.516 C 123.741 240.210,118.400 245.464,118.400 246.958 C 118.400 247.531,118.243 248.000,118.050 248.000 C 117.858 248.000,117.597 248.517,117.470 249.150 C 117.198 250.512,114.284 253.503,113.059 253.678 C 111.288 253.930,112.129 254.988,114.400 255.365 C 115.610 255.566,116.714 255.902,116.853 256.112 C 116.992 256.322,117.709 256.564,118.448 256.650 C 119.186 256.736,120.104 256.906,120.487 257.027 C 120.959 257.178,121.747 256.667,122.943 255.437 C 124.923 253.400,126.612 252.826,130.667 252.810 C 132.023 252.804,133.193 252.625,133.267 252.412 C 133.481 251.788,138.770 251.705,139.150 252.319 C 139.508 252.898,143.219 253.988,144.857 253.995 C 146.077 254.001,146.393 254.596,146.417 256.933 C 146.440 259.073,147.009 262.025,147.462 262.349 C 147.655 262.487,148.031 263.443,148.298 264.473 C 148.926 266.899,150.404 268.345,152.850 268.926 C 153.998 269.199,154.800 269.613,154.800 269.932 C 154.800 270.231,155.120 270.559,155.511 270.661 C 155.979 270.783,156.384 271.529,156.697 272.848 C 157.124 274.646,158.391 276.349,159.329 276.387 C 159.509 276.394,159.927 276.670,160.257 277.000 C 160.587 277.330,161.371 277.600,162.000 277.600 C 162.629 277.600,163.415 277.872,163.748 278.205 C 164.081 278.538,164.910 278.922,165.591 279.058 C 166.272 279.194,167.005 279.636,167.221 280.040 C 167.742 281.012,169.411 282.800,169.799 282.800 C 169.967 282.800,170.685 283.414,171.392 284.165 C 173.348 286.238,174.733 286.486,185.500 286.694 C 190.835 286.798,195.200 287.044,195.200 287.241 C 195.200 287.438,197.540 287.600,200.400 287.600 C 203.260 287.600,205.600 287.441,205.600 287.247 C 205.600 287.053,209.695 286.800,214.700 286.685 C 224.767 286.454,226.807 286.104,227.651 284.464 C 227.952 283.879,228.315 283.310,228.457 283.200 C 228.599 283.090,228.875 282.190,229.070 281.200 L 229.424 279.400 233.012 279.100 C 234.985 278.936,236.658 278.625,236.730 278.410 C 236.802 278.195,237.739 277.903,238.813 277.761 C 240.791 277.498,243.600 275.579,243.600 274.490 C 243.600 274.220,243.757 274.000,243.949 274.000 C 244.141 274.000,244.414 273.273,244.556 272.385 C 244.698 271.496,245.081 270.667,245.407 270.542 C 245.733 270.417,246.000 270.064,246.000 269.757 C 246.000 269.451,246.352 269.200,246.781 269.200 C 248.726 269.200,251.373 267.244,251.816 265.480 C 251.965 264.886,252.247 264.400,252.443 264.400 C 252.640 264.400,252.797 264.175,252.793 263.900 C 252.770 262.333,254.281 258.791,255.175 258.317 C 256.606 257.559,257.769 256.296,258.548 254.652 C 258.927 253.853,259.388 253.200,259.571 253.200 C 259.986 253.200,260.800 250.059,260.800 248.456 C 260.800 247.802,261.025 247.192,261.300 247.100 C 261.689 246.971,261.855 241.728,262.045 223.567 C 262.180 210.715,262.315 200.155,262.345 200.100 C 262.375 200.045,262.674 200.000,263.009 200.000 C 263.343 200.000,264.527 199.100,265.638 198.000 C 266.750 196.900,267.991 196.000,268.396 196.000 C 268.802 196.000,269.195 195.814,269.271 195.586 C 269.347 195.359,271.162 194.973,273.305 194.730 C 275.447 194.486,277.200 194.153,277.200 193.989 C 277.200 193.825,278.008 193.570,278.995 193.422 C 279.983 193.274,281.018 192.938,281.295 192.676 C 281.573 192.414,282.309 191.937,282.931 191.616 C 283.553 191.295,284.255 190.665,284.491 190.216 C 284.727 189.767,285.028 189.310,285.161 189.200 C 285.293 189.090,285.646 188.524,285.945 187.943 C 286.387 187.084,286.945 186.797,288.926 186.407 C 291.281 185.944,293.178 184.753,293.193 183.729 C 293.197 183.469,293.515 182.942,293.900 182.557 C 294.761 181.696,295.009 126.232,294.154 125.685 C 293.909 125.528,293.581 124.994,293.427 124.499 C 293.272 124.003,292.213 122.652,291.073 121.498 C 287.700 118.081,287.846 118.137,286.241 119.667 C 284.176 121.637,283.954 121.779,282.100 122.329 C 281.165 122.606,280.400 122.976,280.400 123.153 C 280.400 123.329,279.680 123.689,278.800 123.953 C 277.920 124.216,277.200 124.584,277.200 124.769 C 277.200 124.955,276.827 125.204,276.370 125.324 C 275.914 125.443,275.443 125.914,275.324 126.370 C 275.204 126.827,274.960 127.200,274.780 127.200 C 274.601 127.200,274.326 127.604,274.169 128.097 C 273.698 129.582,271.905 131.200,270.730 131.200 C 270.140 131.200,269.418 131.440,269.125 131.733 C 268.832 132.025,268.063 132.398,267.416 132.560 C 265.889 132.943,264.511 134.458,263.896 136.428 C 263.133 138.873,262.405 138.431,262.370 135.500 C 262.263 126.737,261.702 117.434,261.272 117.291 C 261.012 117.204,260.800 116.911,260.800 116.639 C 260.800 114.232,255.949 113.169,249.019 114.058 M255.200 119.971 C 255.200 120.176,255.470 120.613,255.801 120.944 C 256.132 121.274,256.614 122.907,256.873 124.572 C 257.132 126.238,257.491 127.600,257.672 127.600 C 257.852 127.600,258.000 129.769,258.000 132.420 C 258.000 137.124,258.545 139.600,259.582 139.600 C 259.780 139.600,260.204 139.861,260.523 140.180 C 261.585 141.242,263.074 141.357,263.862 140.437 C 264.255 139.976,264.737 139.600,264.933 139.600 C 265.473 139.600,267.185 137.865,267.193 137.310 C 267.197 137.041,267.740 136.541,268.400 136.200 C 269.060 135.859,269.600 135.418,269.600 135.222 C 269.600 135.025,270.139 134.745,270.798 134.601 C 271.456 134.456,272.131 134.126,272.298 133.868 C 272.464 133.610,273.128 133.129,273.772 132.799 C 274.417 132.470,276.037 131.077,277.372 129.704 C 278.708 128.331,280.025 127.206,280.300 127.204 C 280.575 127.202,280.800 127.047,280.800 126.861 C 280.800 126.674,281.565 126.184,282.500 125.772 C 283.435 125.359,284.290 124.923,284.400 124.803 C 284.789 124.376,286.848 123.600,287.590 123.600 C 288.522 123.600,290.855 125.812,291.512 127.319 C 292.340 129.217,292.203 179.932,291.367 181.126 C 290.164 182.844,288.833 183.927,287.319 184.421 C 286.484 184.693,285.710 185.034,285.600 185.177 C 285.490 185.321,284.590 185.674,283.600 185.962 C 281.878 186.462,281.469 186.728,279.478 188.644 C 278.995 189.109,278.158 189.628,277.619 189.797 C 277.079 189.967,276.404 190.339,276.119 190.624 C 275.834 190.909,274.610 191.364,273.400 191.635 C 272.190 191.906,271.200 192.253,271.200 192.407 C 271.200 192.561,269.580 192.908,267.600 193.178 C 265.620 193.449,264.000 193.812,264.000 193.985 C 264.000 194.158,263.490 194.402,262.867 194.527 C 262.245 194.651,261.207 195.259,260.561 195.877 C 258.206 198.130,258.232 197.921,258.079 216.300 C 257.997 226.270,257.788 233.200,257.570 233.200 C 257.366 233.200,257.200 234.124,257.200 235.254 C 257.200 237.724,256.485 240.317,255.513 241.375 C 255.121 241.802,254.800 242.368,254.800 242.633 C 254.800 242.898,254.564 243.205,254.276 243.316 C 253.987 243.426,253.530 244.255,253.260 245.158 C 252.989 246.061,252.620 246.800,252.439 246.800 C 252.257 246.800,251.874 247.925,251.587 249.300 C 251.300 250.675,250.957 251.890,250.826 252.000 C 250.694 252.110,250.354 253.099,250.069 254.198 C 249.784 255.297,249.292 256.341,248.975 256.518 C 248.659 256.695,248.400 257.017,248.400 257.235 C 248.400 257.452,247.320 258.696,246.000 260.000 C 244.680 261.304,243.600 262.548,243.600 262.765 C 243.600 262.981,243.150 263.644,242.600 264.238 C 242.050 264.831,241.600 265.458,241.600 265.630 C 241.600 266.135,239.089 268.566,237.990 269.125 C 237.435 269.407,236.626 270.166,236.192 270.811 C 235.759 271.456,234.908 272.189,234.302 272.441 C 233.696 272.692,233.200 273.065,233.200 273.269 C 233.200 273.474,232.660 273.830,232.000 274.060 C 231.340 274.290,230.800 274.616,230.800 274.784 C 230.800 274.953,229.705 275.323,228.367 275.607 C 227.029 275.891,225.700 276.357,225.415 276.642 C 225.130 276.927,224.410 277.283,223.816 277.432 C 223.222 277.581,222.641 277.950,222.525 278.251 C 222.409 278.553,222.074 278.800,221.780 278.800 C 221.486 278.800,221.009 279.137,220.721 279.549 C 220.433 279.960,219.207 280.635,217.998 281.049 C 216.789 281.462,215.699 281.936,215.575 282.101 C 214.459 283.601,186.210 283.477,185.667 281.970 C 185.593 281.766,185.131 281.600,184.639 281.600 C 183.195 281.600,179.616 280.413,178.844 279.678 C 178.452 279.305,177.713 278.730,177.200 278.400 C 176.687 278.070,175.945 277.492,175.550 277.116 C 175.155 276.739,173.834 276.142,172.616 275.787 C 171.397 275.433,170.400 275.020,170.400 274.869 C 170.400 274.719,169.865 274.358,169.211 274.069 C 168.556 273.779,166.947 272.475,165.635 271.171 C 164.323 269.867,163.051 268.800,162.809 268.800 C 162.240 268.800,157.478 264.066,156.830 262.857 C 156.067 261.431,154.713 260.000,154.128 260.000 C 153.838 260.000,153.600 259.865,153.600 259.700 C 153.599 259.535,153.144 258.871,152.588 258.225 C 152.032 257.578,151.473 256.633,151.345 256.125 C 151.218 255.616,150.962 255.200,150.777 255.200 C 150.592 255.200,150.228 254.120,149.968 252.800 C 149.708 251.480,149.347 250.400,149.164 250.400 C 148.981 250.400,148.616 249.680,148.353 248.800 C 148.089 247.920,147.739 247.200,147.576 247.200 C 147.412 247.200,147.102 246.694,146.886 246.075 C 146.500 244.967,143.848 244.629,143.200 245.604 C 143.090 245.770,141.568 246.200,139.819 246.561 C 138.069 246.921,136.539 247.355,136.419 247.525 C 136.298 247.695,135.390 248.088,134.400 248.400 C 133.410 248.712,132.498 249.111,132.373 249.289 C 132.012 249.801,127.857 249.770,127.685 249.254 C 127.601 249.004,127.272 248.800,126.953 248.800 C 126.465 248.800,124.000 246.659,124.000 246.234 C 124.000 246.074,126.848 243.242,127.770 242.486 C 128.115 242.203,129.296 241.681,130.394 241.326 C 132.051 240.791,132.474 240.453,132.876 239.341 C 133.143 238.603,133.484 238.000,133.634 238.000 C 133.784 238.000,134.000 237.642,134.115 237.205 C 134.229 236.767,134.790 236.232,135.361 236.015 C 135.933 235.798,136.400 235.464,136.400 235.274 C 136.400 235.084,137.120 234.690,138.000 234.400 C 138.880 234.110,139.600 233.716,139.600 233.526 C 139.600 233.336,140.035 233.015,140.566 232.813 C 141.097 232.611,141.649 232.076,141.793 231.623 C 141.936 231.170,142.222 230.800,142.427 230.800 C 142.653 230.800,142.800 222.224,142.800 209.020 C 142.800 188.571,143.021 183.542,143.953 182.800 C 144.091 182.690,144.451 181.896,144.751 181.035 C 145.251 179.607,146.914 177.600,147.597 177.600 C 147.751 177.600,148.294 177.238,148.804 176.797 C 149.314 176.355,150.421 175.786,151.265 175.533 C 152.109 175.280,152.800 174.924,152.800 174.742 C 152.800 174.560,153.598 174.211,154.573 173.965 C 155.548 173.720,156.442 173.267,156.560 172.959 C 156.678 172.652,156.981 172.400,157.233 172.400 C 157.486 172.400,158.256 171.793,158.946 171.051 C 160.261 169.636,162.328 168.400,163.380 168.400 C 163.721 168.400,164.000 168.249,164.000 168.064 C 164.000 167.879,165.035 167.497,166.300 167.215 C 167.565 166.934,168.711 166.528,168.847 166.314 C 169.208 165.744,172.116 165.748,172.306 166.319 C 172.394 166.583,172.677 166.800,172.935 166.800 C 173.599 166.800,175.512 168.916,175.994 170.183 C 176.239 170.828,176.400 176.476,176.400 184.427 L 176.400 197.602 177.820 198.941 C 179.202 200.244,182.316 200.377,183.200 199.170 C 183.310 199.020,184.385 198.763,185.589 198.599 C 187.764 198.302,188.818 197.642,190.950 195.243 C 192.480 193.520,193.342 192.800,193.875 192.800 C 194.164 192.800,194.400 192.622,194.400 192.405 C 194.400 192.188,195.030 191.748,195.800 191.426 C 196.570 191.104,197.200 190.696,197.200 190.518 C 197.200 190.341,197.730 189.961,198.377 189.674 C 199.024 189.388,199.788 188.624,200.075 187.976 C 200.362 187.328,201.182 186.520,201.898 186.180 C 202.614 185.840,203.200 185.398,203.200 185.197 C 203.200 184.996,203.920 184.616,204.800 184.353 C 205.680 184.089,206.400 183.712,206.400 183.516 C 206.400 183.319,206.940 182.970,207.600 182.740 C 208.260 182.510,208.800 182.164,208.800 181.971 C 208.800 181.778,209.320 181.352,209.955 181.023 C 210.591 180.694,211.844 179.700,212.740 178.813 C 213.636 177.926,214.512 177.200,214.687 177.200 C 214.862 177.200,215.259 176.615,215.570 175.900 C 215.881 175.185,216.330 174.472,216.568 174.315 C 216.859 174.123,217.065 168.996,217.200 158.600 C 217.324 149.005,217.551 143.062,217.800 142.885 C 218.020 142.728,218.522 141.657,218.915 140.505 C 219.752 138.050,220.999 136.566,222.553 136.176 C 223.164 136.023,223.754 135.663,223.864 135.377 C 223.974 135.092,224.949 134.631,226.032 134.353 C 227.114 134.076,228.000 133.723,228.000 133.569 C 228.000 133.415,228.607 133.175,229.349 133.036 C 230.090 132.897,231.125 132.408,231.649 131.949 C 232.172 131.491,233.005 130.959,233.500 130.768 C 233.995 130.576,234.400 130.182,234.400 129.891 C 234.400 129.600,234.946 128.921,235.613 128.381 C 236.279 127.842,237.044 127.208,237.313 126.974 C 237.581 126.739,239.105 126.210,240.700 125.797 C 242.295 125.384,243.600 124.925,243.600 124.778 C 243.600 124.630,244.680 124.280,246.000 124.000 C 247.320 123.720,248.400 123.371,248.400 123.226 C 248.400 123.080,249.030 122.733,249.800 122.454 C 250.570 122.176,251.200 121.802,251.200 121.623 C 251.200 121.444,251.740 121.073,252.400 120.800 C 253.060 120.527,253.600 120.145,253.600 119.951 C 253.600 119.758,253.960 119.600,254.400 119.600 C 254.840 119.600,255.200 119.767,255.200 119.971 M212.000 216.345 C 212.000 216.535,210.920 216.920,209.600 217.200 C 208.280 217.480,207.200 217.845,207.200 218.010 C 207.200 218.176,206.525 218.436,205.700 218.589 C 203.516 218.993,201.200 219.753,201.200 220.066 C 201.200 220.215,200.648 220.458,199.973 220.606 C 199.298 220.754,198.659 221.103,198.552 221.381 C 198.445 221.658,197.648 222.120,196.779 222.407 C 195.911 222.694,195.200 223.072,195.200 223.248 C 195.200 223.424,194.435 223.791,193.500 224.064 C 192.565 224.338,191.710 224.684,191.600 224.833 C 191.490 224.983,189.994 225.395,188.275 225.749 C 186.556 226.103,184.879 226.664,184.547 226.996 C 184.215 227.328,183.731 227.603,183.471 227.607 C 181.317 227.638,180.182 235.552,182.015 237.755 C 183.847 239.956,185.704 241.611,186.590 241.833 C 187.145 241.973,187.600 242.219,187.600 242.380 C 187.600 242.541,188.590 242.894,189.800 243.165 C 191.010 243.436,192.000 243.810,192.000 243.997 C 192.000 244.184,192.525 244.452,193.167 244.593 C 193.809 244.734,194.708 245.173,195.165 245.570 C 195.963 246.261,198.000 246.288,198.000 245.607 C 198.000 245.442,199.350 245.067,201.000 244.774 C 202.650 244.481,204.000 244.111,204.000 243.952 C 204.000 243.793,204.542 243.545,205.204 243.399 C 205.866 243.254,206.631 242.918,206.904 242.652 C 207.177 242.387,208.075 241.853,208.900 241.466 C 209.725 241.079,210.400 240.625,210.400 240.456 C 210.400 240.287,211.032 239.901,211.805 239.598 C 212.799 239.208,213.406 238.602,213.882 237.523 C 214.251 236.686,214.681 236.000,214.837 236.000 C 214.993 236.000,215.344 235.055,215.618 233.900 C 215.892 232.745,216.315 231.672,216.558 231.515 C 216.848 231.328,217.000 229.189,217.000 225.300 L 217.000 219.369 215.722 218.185 C 215.019 217.533,214.172 216.775,213.839 216.500 C 213.146 215.928,212.000 215.831,212.000 216.345 M213.200 224.948 L 213.200 230.697 211.266 230.953 C 208.936 231.263,206.925 232.875,206.553 234.733 C 206.414 235.430,206.143 236.000,205.950 236.000 C 205.757 236.000,205.600 236.431,205.600 236.957 C 205.600 238.336,205.182 238.400,196.200 238.400 C 191.726 238.400,187.781 238.291,187.433 238.157 C 186.690 237.872,186.465 229.200,187.200 229.200 C 187.420 229.200,187.600 228.969,187.600 228.687 C 187.600 228.328,188.947 228.031,192.069 227.699 C 194.527 227.438,196.642 227.061,196.769 226.861 C 196.896 226.661,197.810 226.375,198.800 226.225 C 201.094 225.876,202.911 225.192,203.320 224.523 C 203.496 224.236,203.838 224.000,204.081 224.000 C 204.324 224.000,205.173 223.296,205.967 222.436 C 206.939 221.383,207.899 220.780,208.905 220.591 C 209.727 220.437,210.400 220.164,210.400 219.983 C 210.400 219.690,211.289 219.408,212.700 219.254 C 213.079 219.213,213.200 220.587,213.200 224.948 " stroke="none" fill="#645cfc" fill-rule="evenodd"></path></g></svg>